<?xml version="1.0" encoding="UTF-8" standalone="no"?>
<!-- Created with Inkscape (http://www.inkscape.org/) -->

<svg
   width="210mm"
   height="297mm"
   viewBox="0 0 210 297"
   version="1.1"
   id="svg1"
   inkscape:version="1.4.1 (93de688d07, 2025-03-30)"
   sodipodi:docname="reri.svg"
   inkscape:export-filename="reri.png"
   inkscape:export-xdpi="600"
   inkscape:export-ydpi="600"
   xmlns:inkscape="http://www.inkscape.org/namespaces/inkscape"
   xmlns:sodipodi="http://sodipodi.sourceforge.net/DTD/sodipodi-0.dtd"
   xmlns="http://www.w3.org/2000/svg"
   xmlns:svg="http://www.w3.org/2000/svg">
  <sodipodi:namedview
     id="namedview1"
     pagecolor="#ffffff"
     bordercolor="#000000"
     borderopacity="0.25"
     inkscape:showpageshadow="2"
     inkscape:pageopacity="0.0"
     inkscape:pagecheckerboard="0"
     inkscape:deskcolor="#d1d1d1"
     inkscape:document-units="mm"
     showgrid="true"
     inkscape:zoom="2.0703424"
     inkscape:cx="355.73826"
     inkscape:cy="295.60328"
     inkscape:window-width="2560"
     inkscape:window-height="1368"
     inkscape:window-x="0"
     inkscape:window-y="0"
     inkscape:window-maximized="1"
     inkscape:current-layer="layer1"
     inkscape:export-bgcolor="#ffffffff">
    <inkscape:grid
       id="grid13"
       units="mm"
       originx="0"
       originy="0"
       spacingx="0.99999998"
       spacingy="1"
       empcolor="#0099e5"
       empopacity="0.30196078"
       color="#0099e5"
       opacity="0.14901961"
       empspacing="5"
       enabled="true"
       visible="true" />
  </sodipodi:namedview>
  <defs
     id="defs1" />
  <g
     inkscape:label="图层 1"
     inkscape:groupmode="layer"
     id="layer1"
     style="display:inline;opacity:1">
    <path
       id="text1"
       style="font-size:25.4px;stroke-width:0.619539"
       d="m 154.496,49.502405 c -0.91302,0.02722 -1.56975,1.24237 -0.60669,2.75177 -1.67038,0.377605 -3.68115,-0.04761 -5.5025,0.106453 -2.75856,0.671629 2.23428,-3.832116 -1.62264,-2.259293 l -0.231,-0.116272 -0.1111,-0.05581 c -1.51661,4.480999 -5.91239,7.158439 -7.93543,11.349178 2.10791,-0.554185 6.64738,-7.27976 6.39237,-1.634009 1.03646,2.921263 -4.68144,8.189844 1.18753,6.882268 0.41982,-1.974301 2.88348,-1.0137 4.67826,-1.230416 h 15.27762 c 1.30359,-5.192678 -6.421,0.494098 -9.1152,-1.903243 -2.74659,-4.718512 9.09154,0.468607 6.66729,-3.868498 -1.80507,0.858022 -9.67152,0.453723 -6.12159,-1.840714 h 6.45852 c 2.23197,-5.215495 -8.89032,1.697138 -7.18922,-3.516582 2.77704,-0.2501 5.75044,-0.04443 8.61653,-0.111621 1.18123,-5.115948 -7.73674,1.382956 -9.21701,-3.125907 -0.438,-1.032166 -1.07794,-1.443639 -1.62574,-1.427303 z M 71.631287,49.63728 c -2.918104,0.08911 -5.953046,0.898141 -8.892481,0.787549 -5.37601,0.230441 -10.761958,0.638895 -16.016077,1.79679 2.411254,0.453007 6.432116,0.03763 9.459371,0.158646 2.194853,0.605616 8.82869,-1.743302 7.085356,1.844849 -4.019857,0.543915 -8.277051,-0.386829 -12.270569,0.435632 -0.86267,0.513582 -4.32897,1.582522 -3.5264,1.740979 5.388136,-0.06833 10.776253,-0.136827 16.164388,-0.205155 0.501102,3.180784 -3.97972,1.382635 -5.956742,1.814359 -0.988172,4e-6 -1.975997,-1.3e-5 -2.96416,0 l -3.38584,9.301241 c 3.925979,-0.01763 7.852115,-0.03559 11.778093,-0.05323 -0.928141,4.156933 -6.569541,1.002738 -9.544637,2.20865 -2.20587,0.765875 -7.714028,2.977418 -2.620512,2.283065 l 9.943062,-0.4439 c -1.82239,4.158148 -6.573688,1.647483 -10.00094,2.551265 -3.707093,0.814719 -7.385955,1.809091 -11.090796,2.668054 l 34.927584,-0.37362 -0.174666,0.06925 33.577799,-0.636137 c 0.69889,-3.288005 -3.75132,-1.577233 -5.69785,-1.962671 h -6.73292 c -1.356162,-5.870314 6.68236,-2.967522 9.99216,-4.650362 1.41963,-0.324531 5.18892,-1.513877 5.56038,-1.926497 0.0957,-0.01418 0.1894,-0.02627 0.28112,-0.03669 4.22028,-1.013938 8.47058,-2.046539 12.4473,-3.824056 3.51285,3.642438 9.3351,3.823722 13.79141,2.621028 -4.45808,-1.344456 -9.847,-1.267337 -12.98836,-5.267895 -5.59522,3.811572 -12.25886,5.066301 -18.68775,6.860563 l -10.39626,0.960665 c 0.189261,-2.753918 1.891491,-7.281746 5.09633,-7.137032 1.93558,0.100582 5.52528,-0.870423 3.87883,2.532145 -0.58727,1.70265 -6.627516,0.974341 -4.44469,2.954341 5.48082,1.696611 7.74036,-3.395613 7.80314,-8.064624 1.57882,-4.699824 -1.95964,-10.546411 -7.24555,-7.949385 -7.023529,-1.500794 -1.743648,7.797202 -4.99866,11.280965 -0.700569,2.653519 -4.520275,3.066787 -5.690091,4.274674 1.000433,0.263336 2.845411,0.215428 3.281453,0.0863 -0.375029,4.821243 -8.387287,-0.123783 -11.265979,3.13986 -3.201434,1.910472 5.156836,0.443861 6.805786,0.871265 2.895713,-1.009313 6.441899,0.816055 3.638021,3.400826 -3.94146,-0.102749 -8.026093,-0.402015 -11.930021,0.125574 -0.06699,-0.240444 -0.631012,-0.318662 -2.041219,-0.09508 -4.198327,-0.361063 -10.420115,0.878992 -13.363526,-0.475423 0.02274,-3.327487 3.448593,-1.950147 5.569169,-2.208651 h 5.547982 c 0.480534,-3.151182 -3.987137,-1.347109 -5.956742,-1.784387 -1.443561,-0.387085 -4.225007,0.849893 -4.660181,-0.761711 0.605132,-2.517783 4.142157,-0.840655 6.105571,-1.29036 1.247825,-0.310593 4.038722,0.921973 3.381189,-1.293978 V 58.010929 H 65.86523 c -0.501101,-3.180784 3.980238,-1.382634 5.957259,-1.814359 h 6.235279 C 78.697946,53.013017 74.27125,54.765707 72.360441,54.352755 H 65.86523 c -0.930955,-5.271932 8.790752,-0.31699 8.637199,-4.503601 -0.938801,-0.19088 -1.898441,-0.241577 -2.871142,-0.211874 z m 20.604943,0.03979 c -1.689006,0.05307 -4.56973,5.796754 -5.386234,2.894914 0.07934,-4.086387 -5.286347,-3.164224 -2.630847,0.84956 -3.421407,-1.565472 -7.083335,3.481127 -1.650029,1.955437 1.589034,-0.113425 3.178117,-0.226608 4.767151,-0.340031 0.791938,2.247709 -0.461894,7.335168 -3.195154,4.324284 -0.421153,-1.572258 1.098876,-3.791374 -1.830379,-2.986381 l -2.020032,6.144327 6.213058,-0.523482 c -1.795543,2.392679 -5.662937,4.046763 -5.940723,6.965983 4.745632,-0.937749 6.460315,-7.360915 11.303186,-7.17889 1.771474,-0.357238 -0.750354,2.558682 2.305803,0.98547 0.652353,-1.498321 0.919393,-8.479587 -1.626774,-5.590873 1.868688,4.183671 -5.081279,3.897934 -3.167766,-0.220659 -1.347311,-4.189899 8.328863,-0.262516 6.152079,-3.833358 -2.376744,0.502137 -4.902545,0.145193 -2.287715,-2.140437 -0.221738,-0.963392 -0.575092,-1.319391 -1.005624,-1.305864 z m 20.16259,0.2651 c 1.82602,1.284369 2.05803,2.661573 4.92994,2.031918 h 5.81204 c 0.29673,3.741249 -9.08891,0.862105 -11.27011,1.919262 1.31633,2.779718 -4.99971,8.302572 0.10232,5.735051 2.7958,-0.435666 -0.84906,-4.852069 3.42615,-4.067969 3.38436,0.361128 9.4411,-2.272886 7.72821,3.319694 2.82384,3.642116 1.58663,-2.865503 2.89853,-3.7021 3.31988,-0.269078 6.65663,-0.462735 9.98337,-0.711067 -0.15434,1.732702 -4.51628,5.559442 -0.29352,3.487642 2.84514,-0.668078 3.58922,-7.098385 -0.83716,-4.894275 l -9.5374,0.608749 c 0.42549,-3.655985 6.7592,-0.729317 9.58546,-1.764751 6.17927,-0.886089 -2.49069,-2.252415 -4.84673,-1.66243 -5.89097,-0.17397 -11.78782,-0.188936 -17.6811,-0.299724 z M 104.7626,52.2118 c 2.76844,4.080488 -9.280992,3.476871 -5.018817,0.0021 1.667887,-0.121256 3.339657,0.109074 5.018817,-0.0021 z m 43.68002,1.742013 c 1.26963,-0.04177 2.87574,0.287441 3.85868,0.101802 2.09576,-0.171161 2.08281,-0.11013 1.9451,2.022099 h -7.64243 c -0.36377,-1.669466 0.56902,-2.082134 1.83865,-2.123901 z m -42.72763,2.08411 c 3.24476,5.848822 -11.715891,3.734535 -5.17436,0.488342 z m 14.08752,0.302307 c -0.0571,-0.0017 -0.11534,-0.0011 -0.17519,0.0021 -2.58515,0.137486 -7.66408,4.785729 -9.14673,7.077088 -0.2708,1.940041 2.24487,-0.04982 4.23486,-1.05816 1.98999,-1.008339 3.96693,-0.846155 4.10365,-1.529796 0.12192,-0.609567 -1.72042,-0.585803 -3.07784,-0.487825 1.37661,-1.090223 2.6751,-1.833408 3.3972,-1.237651 1.68259,1.388194 0.64764,1.977937 -0.29197,2.891296 -0.42578,0.413881 -0.16408,0.914762 0.17725,0.978752 1.96413,0.368223 4.68341,-2.62389 1.74408,-6.202205 -0.23539,-0.286565 -0.56574,-0.421365 -0.96531,-0.433566 z m 12.38064,0.376205 c -1.06466,-0.06028 -2.47983,0.291028 -3.41168,0.07493 h -1.94355 c -0.0416,1.108162 1.07242,1.552839 2.41949,1.619022 0.0996,0.447342 0.0102,1.004535 -0.0915,1.418001 -0.63273,0.04892 -1.22854,0.0556 -1.71721,-0.06305 h -0.61081 c 0.0788,2.804577 5.3314,1.152062 7.24193,1.170471 -0.23633,-1.371652 -1.60608,-1.423029 -3.13831,-1.285192 -0.11362,-0.421238 -0.14431,-0.893292 0.12713,-1.344621 1.07947,-0.163915 2.05549,-0.485076 2.48202,-0.825273 -0.2061,-0.543855 -0.71875,-0.728129 -1.35754,-0.764294 z m 16.50183,0.841292 c 1.30123,0.0097 2.95593,0.345079 3.87573,0.126091 h 1.68569 c 0.596,3.484856 -5.4161,2.176602 -7.31687,1.701188 -0.4936,-1.521317 0.45422,-1.836971 1.75545,-1.827279 z m -91.800597,2.058789 h 6.750492 c 1.179998,3.372588 -6.604061,3.142374 -6.750492,0.935344 z m 8.980847,0 h 7.077604 c 1.140652,3.552347 -6.967369,2.938112 -7.077604,0.93586 z m 81.47771,1.516703 c 2.23998,0.392557 4.61869,0.07655 6.90346,0.178284 0.19961,3.459991 -9.80011,3.388777 -6.90346,-0.178284 z m -90.458557,2.230355 h 6.750492 c 0.949025,3.415671 -6.987619,3.368731 -6.750492,0.7059 z m 8.980847,0 h 7.077604 c 1.160786,3.585031 -6.95925,2.973809 -7.077604,0.965833 z m 57.58925,1.102775 c -0.41669,-0.0058 -0.83045,0.200061 -1.20613,0.74104 5.27304,3.21736 -2.88388,2.577784 -5.07824,2.550749 -1.36627,-0.14081 -9.17768,2.720464 -6.30918,2.554366 l 19.9223,-0.971517 c -3.73698,4.910876 -9.8222,1.168744 -14.41721,2.370915 -2.40127,1.07499 4.62922,0.581105 5.68389,1.765784 3.11571,0.62955 5.87123,3.091579 9.03098,3.120223 0.007,0.06867 0.5777,0.08211 2.06912,-0.0026 4.47467,-0.09969 8.94932,-0.199512 13.42399,-0.299207 0.38388,-2.507966 4.41622,-0.712525 6.47506,-1.215946 h 8.92917 c -0.64766,0.93869 -2.45704,1.221432 -3.75378,1.284159 0.22347,0.01373 0.47654,0.0306 0.76171,0.05168 l 5.28185,0.09147 v -9.069731 c -6.63154,-4e-6 -13.26286,1e-5 -19.89439,0 -0.52407,4.130869 -3.26905,7.587725 -7.24711,8.277014 -3.62593,-0.277714 -8.98675,-0.443418 -8.61394,-3.005501 2.89061,-0.62943 8.42798,-5.731674 2.12493,-5.086511 -1.96479,-0.188671 -6.3466,0.877611 -4.7656,-1.370976 -0.56991,-0.736964 -1.50071,-1.772757 -2.41742,-1.785421 z m 34.76997,11.897982 c -0.98834,-0.06073 -1.39591,-0.05534 -1.42058,-0.03566 l -5.2e-4,5.17e-4 -5.2e-4,5.17e-4 v 5.17e-4 5.16e-4 5.17e-4 l 5.2e-4,5.17e-4 5.2e-4,5.17e-4 c 0.0363,0.02653 0.63467,0.07006 1.42058,0.03204 z m -9.05836,-7.197493 c 0.32207,0.01546 0.66728,0.0633 1.03249,0.144177 h 11.77965 c 0.91539,3.094369 -0.70289,4.572342 -3.62459,3.925342 H 146.574 c -0.80097,-2.707573 0.33758,-4.177749 2.59209,-4.069519 z"
       sodipodi:nodetypes="scccccccccccccccccssccccccccccccccccccccccccccccccccccccccccccccccccccccccccsscccccccccccccccsccccccccccccccccccscccscccscczscssssssccccccccccsscccscccccccccccccccccccsccccccccccccccccccccsccccccccccsccccs" />
    <path
       d="m 44.122003,80.948342 c 5.381613,-0.393153 5.013866,2.691527 2.388563,3.364357 0.407697,0.652879 3.697605,2.040228 2.287121,2.229782 -2.24061,0.07027 -2.437536,-1.482442 -3.806319,-2.104525 -2.380847,-0.844088 -3.290036,0.378458 -2.712211,1.419696 0.05447,1.547353 -2.639318,0.21005 -1.550057,-0.779002 0,-1.376767 0,-2.75354 0,-4.130308 1.130968,0 2.261936,0 3.392903,0 z m -0.08611,0.611127 c -2.781705,-0.471338 -1.801509,1.643546 -1.399197,2.07625 4.017868,0.573735 6.765362,-2.038647 1.399197,-2.07625 z m 10.764281,0.705142 c 4.480733,-0.03664 5.378715,3.223369 0.230904,2.311302 -6.070753,-0.34254 0.670584,2.334209 3.161999,1.330052 -4.675128,3.1073 -12.437905,-3.145962 -3.392903,-3.641354 z m -0.01722,0.564113 c -6.561102,0.741686 2.104646,2.061327 2.092577,0.716895 -0.20036,-0.424383 -1.114378,-0.765483 -2.092577,-0.716895 z m 9.248661,3.227986 c 4.390834,0.649725 -5.51468,0.774906 -2.962331,-1.387062 0.24683,-1.018431 0.06836,-1.843382 -1.308937,-2.122971 1.777195,-0.169433 2.770787,-2.184354 2.824548,-0.354163 1.894785,-0.07576 4.33603,0.828544 0.524334,0.68323 -1.063944,0.507384 -0.554363,2.162623 -0.128208,3.000771 l 0.469323,0.135154 0.581271,0.04506 z m 6.630794,-3.784262 c 4.488711,-0.04922 3.080144,2.351866 3.306788,3.687349 -0.365464,1.557572 -1.668608,-0.923666 -3.522074,0.619894 -7.483033,0.04905 -2.011363,-3.183822 2.040909,-2.730534 0.715226,-1.817952 -8.892116,-0.354532 -2.703989,-1.549284 l 0.878366,-0.02739 z m 0.447794,2.240784 c -5.538286,-0.259047 -1.651414,3.000052 1.166848,0.88535 0.250124,-0.713413 0.701124,-1.061782 -1.166848,-0.88535 z m 6.493031,-3.745091 c 3.61117,1.204462 -3.543087,1.037306 0,0 z m 0.740582,1.574819 c 0,1.399838 0,2.799682 0,4.199521 -2.841484,0.303784 -0.991385,-1.526699 -1.515612,-2.277071 0.433294,-0.682616 -1.178284,-2.276572 1.515612,-1.92245 z m 4.44349,4.199521 c -2.841486,0.303784 -0.991388,-1.526699 -1.515613,-2.277071 0,-1.225823 0,-2.451646 0,-3.677476 2.841486,-0.303784 0.991387,1.526699 1.515613,2.27707 0,1.225824 0,2.451647 0,3.677477 z m 11.005398,-5.594139 c 5.381613,-0.393153 5.013864,2.691527 2.388565,3.364357 0.4077,0.652879 3.697603,2.040228 2.287122,2.229782 -2.240613,0.07027 -2.437537,-1.482442 -3.806322,-2.104525 -2.380847,-0.844088 -3.290036,0.378458 -2.712209,1.419696 0.05447,1.547353 -2.639319,0.21005 -1.550057,-0.779002 0,-1.376767 0,-2.75354 0,-4.130308 1.130967,0 2.261934,0 3.392901,0 z m -0.08611,0.611127 c -2.781704,-0.471338 -1.801509,1.643546 -1.399196,2.07625 4.017868,0.573735 6.765362,-2.038647 1.399196,-2.07625 z m 10.764296,0.705142 c 4.48073,-0.03664 5.37871,3.223369 0.2309,2.311302 -6.070762,-0.34254 0.67058,2.334209 3.162,1.330052 -4.67513,3.1073 -12.437914,-3.145962 -3.3929,-3.641354 z m -0.0172,0.564113 c -6.561118,0.741686 2.10464,2.061327 2.09257,0.716895 -0.20036,-0.424383 -1.11438,-0.765483 -2.09257,-0.716895 z m 9.83423,3.713757 c -1.33194,0.0515 -6.51329,0.09311 -3.39732,-0.515069 0.96283,-0.633946 0.11338,-1.92667 0.40055,-2.806225 0.58987,-1.142846 -0.50391,-1.680721 -1.44673,-2.272845 1.33328,-0.04887 6.51034,-0.09891 3.40007,0.520435 -0.96825,0.636627 -0.11501,1.927741 -0.40329,2.80869 -0.47807,1.332867 0.28709,1.498975 1.44672,2.265014 z m 12.29713,-4.27787 c 4.46459,0.09873 2.79212,2.467695 3.11734,3.820549 -1.07168,1.407792 -2.05058,-0.556282 -1.49839,-1.331808 1.39587,-2.538166 -5.94784,-2.133606 -4.37461,0.28323 1.02551,0.940165 -1.41898,2.39775 -1.49838,0.855302 0.16822,-1.214481 0.47493,-4.063419 -3.82348,-2.655744 -1.56818,0.879602 0.65697,2.888103 -1.24898,3.306341 -1.81244,-0.164347 -0.30944,-1.836927 -0.80054,-2.602363 -0.60779,-0.845019 0.65381,-2.458968 1.53283,-1.025209 3.19793,-1.739018 5.34726,0.848929 8.59421,-0.650298 z m 9.47257,0.0078 c 4.48871,-0.04922 3.08014,2.351866 3.30679,3.687355 -0.36547,1.557566 -1.66864,-0.923684 -3.52212,0.619894 -7.48303,0.04905 -2.01136,-3.183828 2.04091,-2.730534 0.71523,-1.817959 -8.89211,-0.354538 -2.70399,-1.549284 l 0.87837,-0.02745 z m 0.44779,2.240784 c -5.53829,-0.259041 -1.65141,3.000051 1.16685,0.885349 0.25012,-0.713412 0.70112,-1.061775 -1.16685,-0.885349 z m 8.99035,-2.248621 c 2.84186,0.52812 2.38679,0.480673 4.39183,0.07835 -0.24709,1.784423 0.57069,3.653902 -0.57159,5.370353 -2.48133,1.984096 -11.48223,-0.716233 -3.47578,0.1376 2.97387,0.21067 3.78659,-2.966686 0.57475,-1.269747 -5.87503,0.662068 -6.45742,-4.328119 -0.91921,-4.316555 z m 0.20668,0.579786 c -7.85621,1.7728 4.66046,5.076437 2.54037,0.867716 -0.1527,-0.547456 -1.37984,-0.919318 -2.54037,-0.867716 z m 10.67816,-0.579786 c 4.48073,-0.03664 5.37871,3.223369 0.2309,2.311302 -6.07075,-0.34254 0.67059,2.334209 3.162,1.330052 -4.67513,3.1073 -12.4379,-3.145962 -3.3929,-3.641354 z m -0.0172,0.564113 c -6.56108,0.741686 2.10462,2.061327 2.0926,0.716895 -0.20039,-0.424371 -1.11439,-0.765483 -2.0926,-0.716895 z m 9.43811,3.792105 c -6.69577,-0.03617 -3.74757,-6.00647 2.38107,-3.976227 1.83567,0.545256 -1.29191,-2.602269 1.92524,-2.056662 0.19949,1.907052 0.0285,3.982671 0.0855,5.95454 -2.95088,-0.33393 0.17003,-0.768239 -4.39178,0.07835 z m 0.24112,-0.57195 c 7.37382,-0.607416 -1.85946,-5.636715 -2.46287,-1.582655 -0.0629,0.687245 0.55749,1.640075 2.46287,1.582655 z"
       id="text12"
       style="font-size:18.44px;stroke-width:0.242007"
       aria-label="Retail ReImaged" />
    <text
       xml:space="preserve"
       style="font-size:12.7px;text-align:start;writing-mode:lr-tb;direction:ltr;text-anchor:start;fill:#000000;fill-opacity:1;stroke:none;stroke-width:0.529167;stroke-opacity:1"
       x="73.186501"
       y="153.1355"
       id="text13"><tspan
         sodipodi:role="line"
         id="tspan12"
         style="font-style:normal;font-variant:normal;font-weight:normal;font-stretch:normal;font-size:12.7px;font-family:'Noto Serif CJK SC';-inkscape-font-specification:'Noto Serif CJK SC';stroke-width:0.529167"
         x="73.186501"
         y="153.1355">项目计划书</tspan></text>
  </g>
  <g
     inkscape:groupmode="layer"
     id="layer2"
     inkscape:label="图层 2" />
</svg>
