<?xml version="1.0" encoding="UTF-8" standalone="no"?>
<!-- Created with Inkscape (http://www.inkscape.org/) -->

<svg
   width="210mm"
   height="297mm"
   viewBox="0 0 210 297"
   version="1.1"
   id="svg1"
   inkscape:version="1.4.1 (93de688d07, 2025-03-30)"
   sodipodi:docname="reri.svg"
   inkscape:export-filename="reri.png"
   inkscape:export-xdpi="600"
   inkscape:export-ydpi="600"
   xmlns:inkscape="http://www.inkscape.org/namespaces/inkscape"
   xmlns:sodipodi="http://sodipodi.sourceforge.net/DTD/sodipodi-0.dtd"
   xmlns="http://www.w3.org/2000/svg"
   xmlns:svg="http://www.w3.org/2000/svg">
  <sodipodi:namedview
     id="namedview1"
     pagecolor="#ffffff"
     bordercolor="#000000"
     borderopacity="0.25"
     inkscape:showpageshadow="2"
     inkscape:pageopacity="0.0"
     inkscape:pagecheckerboard="0"
     inkscape:deskcolor="#d1d1d1"
     inkscape:document-units="mm"
     showgrid="true"
     inkscape:zoom="1.0351712"
     inkscape:cx="269.52064"
     inkscape:cy="319.75387"
     inkscape:window-width="2560"
     inkscape:window-height="1368"
     inkscape:window-x="0"
     inkscape:window-y="0"
     inkscape:window-maximized="1"
     inkscape:current-layer="layer1"
     inkscape:export-bgcolor="#ffffffff">
    <inkscape:grid
       id="grid13"
       units="mm"
       originx="0"
       originy="0"
       spacingx="0.99999998"
       spacingy="1"
       empcolor="#0099e5"
       empopacity="0.30196078"
       color="#0099e5"
       opacity="0.14901961"
       empspacing="5"
       enabled="true"
       visible="true" />
  </sodipodi:namedview>
  <defs
     id="defs1" />
  <g
     inkscape:label="图层 1"
     inkscape:groupmode="layer"
     id="layer1"
     style="display:inline;opacity:1">
    <path
       id="text1"
       style="font-size:25.4px;stroke-width:0.619539"
       d="m 154.496,49.502405 c -0.91302,0.02722 -1.56975,1.24237 -0.60669,2.75177 -1.67038,0.377605 -3.68115,-0.04761 -5.5025,0.106453 -2.75856,0.671629 2.23428,-3.832116 -1.62264,-2.259293 l -0.231,-0.116272 -0.1111,-0.05581 c -1.51661,4.480999 -5.91239,7.158439 -7.93543,11.349178 2.10791,-0.554185 6.64738,-7.27976 6.39237,-1.634009 1.03646,2.921263 -4.68144,8.189844 1.18753,6.882268 0.41982,-1.974301 2.88348,-1.0137 4.67826,-1.230416 h 15.27762 c 1.30359,-5.192678 -6.421,0.494098 -9.1152,-1.903243 -2.74659,-4.718512 9.09154,0.468607 6.66729,-3.868498 -1.80507,0.858022 -9.67152,0.453723 -6.12159,-1.840714 h 6.45852 c 2.23197,-5.215495 -8.89032,1.697138 -7.18922,-3.516582 2.77704,-0.2501 5.75044,-0.04443 8.61653,-0.111621 1.18123,-5.115948 -7.73674,1.382956 -9.21701,-3.125907 -0.438,-1.032166 -1.07794,-1.443639 -1.62574,-1.427303 z M 71.631287,49.63728 c -2.918104,0.08911 -5.953046,0.898141 -8.892481,0.787549 -5.37601,0.230441 -10.761958,0.638895 -16.016077,1.79679 2.411254,0.453007 6.432116,0.03763 9.459371,0.158646 2.194853,0.605616 8.82869,-1.743302 7.085356,1.844849 -4.019857,0.543915 -8.277051,-0.386829 -12.270569,0.435632 -0.86267,0.513582 -4.32897,1.582522 -3.5264,1.740979 5.388136,-0.06833 10.776253,-0.136827 16.164388,-0.205155 0.501102,3.180784 -3.97972,1.382635 -5.956742,1.814359 -0.988172,4e-6 -1.975997,-1.3e-5 -2.96416,0 l -3.38584,9.301241 c 3.925979,-0.01763 7.852115,-0.03559 11.778093,-0.05323 -0.928141,4.156933 -6.569541,1.002738 -9.544637,2.20865 -2.20587,0.765875 -7.714028,2.977418 -2.620512,2.283065 l 9.943062,-0.4439 c -1.82239,4.158148 -6.573688,1.647483 -10.00094,2.551265 -3.707093,0.814719 -7.385955,1.809091 -11.090796,2.668054 l 34.927584,-0.37362 -0.174666,0.06925 33.577799,-0.636137 c 0.69889,-3.288005 -3.75132,-1.577233 -5.69785,-1.962671 h -6.73292 c -1.356162,-5.870314 6.68236,-2.967522 9.99216,-4.650362 1.41963,-0.324531 5.18892,-1.513877 5.56038,-1.926497 0.0957,-0.01418 0.1894,-0.02627 0.28112,-0.03669 4.22028,-1.013938 8.47058,-2.046539 12.4473,-3.824056 3.51285,3.642438 9.3351,3.823722 13.79141,2.621028 -4.45808,-1.344456 -9.847,-1.267337 -12.98836,-5.267895 -5.59522,3.811572 -12.25886,5.066301 -18.68775,6.860563 l -10.39626,0.960665 c 0.189261,-2.753918 1.891491,-7.281746 5.09633,-7.137032 1.93558,0.100582 5.52528,-0.870423 3.87883,2.532145 -0.58727,1.70265 -6.627516,0.974341 -4.44469,2.954341 5.48082,1.696611 7.74036,-3.395613 7.80314,-8.064624 1.57882,-4.699824 -1.95964,-10.546411 -7.24555,-7.949385 -7.023529,-1.500794 -1.743648,7.797202 -4.99866,11.280965 -0.700569,2.653519 -4.520275,3.066787 -5.690091,4.274674 1.000433,0.263336 2.845411,0.215428 3.281453,0.0863 -0.375029,4.821243 -8.387287,-0.123783 -11.265979,3.13986 -3.201434,1.910472 5.156836,0.443861 6.805786,0.871265 2.895713,-1.009313 6.441899,0.816055 3.638021,3.400826 -3.94146,-0.102749 -8.026093,-0.402015 -11.930021,0.125574 -0.06699,-0.240444 -0.631012,-0.318662 -2.041219,-0.09508 -4.198327,-0.361063 -10.420115,0.878992 -13.363526,-0.475423 0.02274,-3.327487 3.448593,-1.950147 5.569169,-2.208651 h 5.547982 c 0.480534,-3.151182 -3.987137,-1.347109 -5.956742,-1.784387 -1.443561,-0.387085 -4.225007,0.849893 -4.660181,-0.761711 0.605132,-2.517783 4.142157,-0.840655 6.105571,-1.29036 1.247825,-0.310593 4.038722,0.921973 3.381189,-1.293978 V 58.010929 H 65.86523 c -0.501101,-3.180784 3.980238,-1.382634 5.957259,-1.814359 h 6.235279 C 78.697946,53.013017 74.27125,54.765707 72.360441,54.352755 H 65.86523 c -0.930955,-5.271932 8.790752,-0.31699 8.637199,-4.503601 -0.938801,-0.19088 -1.898441,-0.241577 -2.871142,-0.211874 z m 20.604943,0.03979 c -1.689006,0.05307 -4.56973,5.796754 -5.386234,2.894914 0.07934,-4.086387 -5.286347,-3.164224 -2.630847,0.84956 -3.421407,-1.565472 -7.083335,3.481127 -1.650029,1.955437 1.589034,-0.113425 3.178117,-0.226608 4.767151,-0.340031 0.791938,2.247709 -0.461894,7.335168 -3.195154,4.324284 -0.421153,-1.572258 1.098876,-3.791374 -1.830379,-2.986381 l -2.020032,6.144327 6.213058,-0.523482 c -1.795543,2.392679 -5.662937,4.046763 -5.940723,6.965983 4.745632,-0.937749 6.460315,-7.360915 11.303186,-7.17889 1.771474,-0.357238 -0.750354,2.558682 2.305803,0.98547 0.652353,-1.498321 0.919393,-8.479587 -1.626774,-5.590873 1.868688,4.183671 -5.081279,3.897934 -3.167766,-0.220659 -1.347311,-4.189899 8.328863,-0.262516 6.152079,-3.833358 -2.376744,0.502137 -4.902545,0.145193 -2.287715,-2.140437 -0.221738,-0.963392 -0.575092,-1.319391 -1.005624,-1.305864 z m 20.16259,0.2651 c 1.82602,1.284369 2.05803,2.661573 4.92994,2.031918 h 5.81204 c 0.29673,3.741249 -9.08891,0.862105 -11.27011,1.919262 1.31633,2.779718 -4.99971,8.302572 0.10232,5.735051 2.7958,-0.435666 -0.84906,-4.852069 3.42615,-4.067969 3.38436,0.361128 9.4411,-2.272886 7.72821,3.319694 2.82384,3.642116 1.58663,-2.865503 2.89853,-3.7021 3.31988,-0.269078 6.65663,-0.462735 9.98337,-0.711067 -0.15434,1.732702 -4.51628,5.559442 -0.29352,3.487642 2.84514,-0.668078 3.58922,-7.098385 -0.83716,-4.894275 l -9.5374,0.608749 c 0.42549,-3.655985 6.7592,-0.729317 9.58546,-1.764751 6.17927,-0.886089 -2.49069,-2.252415 -4.84673,-1.66243 -5.89097,-0.17397 -11.78782,-0.188936 -17.6811,-0.299724 z M 104.7626,52.2118 c 2.76844,4.080488 -9.280992,3.476871 -5.018817,0.0021 1.667887,-0.121256 3.339657,0.109074 5.018817,-0.0021 z m 43.68002,1.742013 c 1.26963,-0.04177 2.87574,0.287441 3.85868,0.101802 2.09576,-0.171161 2.08281,-0.11013 1.9451,2.022099 h -7.64243 c -0.36377,-1.669466 0.56902,-2.082134 1.83865,-2.123901 z m -42.72763,2.08411 c 3.24476,5.848822 -11.715891,3.734535 -5.17436,0.488342 z m 14.08752,0.302307 c -0.0571,-0.0017 -0.11534,-0.0011 -0.17519,0.0021 -2.58515,0.137486 -7.66408,4.785729 -9.14673,7.077088 -0.2708,1.940041 2.24487,-0.04982 4.23486,-1.05816 1.98999,-1.008339 3.96693,-0.846155 4.10365,-1.529796 0.12192,-0.609567 -1.72042,-0.585803 -3.07784,-0.487825 1.37661,-1.090223 2.6751,-1.833408 3.3972,-1.237651 1.68259,1.388194 0.64764,1.977937 -0.29197,2.891296 -0.42578,0.413881 -0.16408,0.914762 0.17725,0.978752 1.96413,0.368223 4.68341,-2.62389 1.74408,-6.202205 -0.23539,-0.286565 -0.56574,-0.421365 -0.96531,-0.433566 z m 12.38064,0.376205 c -1.06466,-0.06028 -2.47983,0.291028 -3.41168,0.07493 h -1.94355 c -0.0416,1.108162 1.07242,1.552839 2.41949,1.619022 0.0996,0.447342 0.0102,1.004535 -0.0915,1.418001 -0.63273,0.04892 -1.22854,0.0556 -1.71721,-0.06305 h -0.61081 c 0.0788,2.804577 5.3314,1.152062 7.24193,1.170471 -0.23633,-1.371652 -1.60608,-1.423029 -3.13831,-1.285192 -0.11362,-0.421238 -0.14431,-0.893292 0.12713,-1.344621 1.07947,-0.163915 2.05549,-0.485076 2.48202,-0.825273 -0.2061,-0.543855 -0.71875,-0.728129 -1.35754,-0.764294 z m 16.50183,0.841292 c 1.30123,0.0097 2.95593,0.345079 3.87573,0.126091 h 1.68569 c 0.596,3.484856 -5.4161,2.176602 -7.31687,1.701188 -0.4936,-1.521317 0.45422,-1.836971 1.75545,-1.827279 z m -91.800597,2.058789 h 6.750492 c 1.179998,3.372588 -6.604061,3.142374 -6.750492,0.935344 z m 8.980847,0 h 7.077604 c 1.140652,3.552347 -6.967369,2.938112 -7.077604,0.93586 z m 81.47771,1.516703 c 2.23998,0.392557 4.61869,0.07655 6.90346,0.178284 0.19961,3.459991 -9.80011,3.388777 -6.90346,-0.178284 z m -90.458557,2.230355 h 6.750492 c 0.949025,3.415671 -6.987619,3.368731 -6.750492,0.7059 z m 8.980847,0 h 7.077604 c 1.160786,3.585031 -6.95925,2.973809 -7.077604,0.965833 z m 57.58925,1.102775 c -0.41669,-0.0058 -0.83045,0.200061 -1.20613,0.74104 5.27304,3.21736 -2.88388,2.577784 -5.07824,2.550749 -1.36627,-0.14081 -9.17768,2.720464 -6.30918,2.554366 l 19.9223,-0.971517 c -3.73698,4.910876 -9.8222,1.168744 -14.41721,2.370915 -2.40127,1.07499 4.62922,0.581105 5.68389,1.765784 3.11571,0.62955 5.87123,3.091579 9.03098,3.120223 0.007,0.06867 0.5777,0.08211 2.06912,-0.0026 4.47467,-0.09969 8.94932,-0.199512 13.42399,-0.299207 0.38388,-2.507966 4.41622,-0.712525 6.47506,-1.215946 h 8.92917 c -0.64766,0.93869 -2.45704,1.221432 -3.75378,1.284159 0.22347,0.01373 0.47654,0.0306 0.76171,0.05168 l 5.28185,0.09147 v -9.069731 c -6.63154,-4e-6 -13.26286,1e-5 -19.89439,0 -0.52407,4.130869 -3.26905,7.587725 -7.24711,8.277014 -3.62593,-0.277714 -8.98675,-0.443418 -8.61394,-3.005501 2.89061,-0.62943 8.42798,-5.731674 2.12493,-5.086511 -1.96479,-0.188671 -6.3466,0.877611 -4.7656,-1.370976 -0.56991,-0.736964 -1.50071,-1.772757 -2.41742,-1.785421 z m 34.76997,11.897982 c -0.98834,-0.06073 -1.39591,-0.05534 -1.42058,-0.03566 l -5.2e-4,5.17e-4 -5.2e-4,5.17e-4 v 5.17e-4 5.16e-4 5.17e-4 l 5.2e-4,5.17e-4 5.2e-4,5.17e-4 c 0.0363,0.02653 0.63467,0.07006 1.42058,0.03204 z m -9.05836,-7.197493 c 0.32207,0.01546 0.66728,0.0633 1.03249,0.144177 h 11.77965 c 0.91539,3.094369 -0.70289,4.572342 -3.62459,3.925342 H 146.574 c -0.80097,-2.707573 0.33758,-4.177749 2.59209,-4.069519 z"
       sodipodi:nodetypes="scccccccccccccccccssccccccccccccccccccccccccccccccccccccccccccccccccccccccccsscccccccccccccccsccccccccccccccccccscccscccscczscssssssccccccccccsscccscccccccccccccccccccsccccccccccccccccccccsccccccccccsccccs" />
    <text
       xml:space="preserve"
       style="font-size:12.7px;text-align:start;writing-mode:lr-tb;direction:ltr;text-anchor:start;fill:#000000;fill-opacity:1;stroke:none;stroke-width:0.529167;stroke-opacity:1"
       x="73.186501"
       y="153.1355"
       id="text13"><tspan
         sodipodi:role="line"
         id="tspan12"
         style="font-style:normal;font-variant:normal;font-weight:normal;font-stretch:normal;font-size:12.7px;font-family:'Noto Serif CJK SC';-inkscape-font-specification:'Noto Serif CJK SC';stroke-width:0.529167"
         x="73.186501"
         y="153.1355">项目计划书</tspan></text>
    <path
       style="font-size:12.7px;font-family:MiSans;-inkscape-font-specification:MiSans;stroke-width:0.529167"
       d="m 59.319396,91.576635 c -1.105936,-2.15014 -3.582498,-3.96692 -0.68634,-5.39688 1.547204,-3.916158 -4.370955,-5.430689 -6.4005,-3.417869 0.228553,2.921864 0.0406,5.878799 0.10184,8.814749 2.502726,0.41737 0.0696,-6.524394 3.645306,-3.15551 0.734187,0.9797 1.168428,2.4853 2.079125,3.15551 0.420189,0 0.840379,0 1.260569,0 z m -3.7592,-8.293103 c 5.501881,0.998584 -3.507525,6.442163 -2.038199,0.89433 -0.08979,-1.313111 1.271593,-0.788113 2.038199,-0.89433 z m 10.3886,4.292603 c -0.105829,-5.931414 -9.21757,-1.334175 -5.591696,2.68848 0.453264,3.41312 7.323149,-0.038 4.110517,-0.13225 -2.24308,2.091 -4.686528,-3.08116 -0.831207,-1.68169 0.765093,-0.0489 2.688934,0.63809 2.312386,-0.87454 z m -4.7879,-0.1397 c -0.280483,-3.579263 5.404799,-0.18696 1.958513,0.12344 -0.640244,-0.19122 -1.304217,-0.10379 -1.958513,-0.12344 z m 9.829809,-2.717803 c -2.476395,1.453799 -2.138059,-4.547556 -3.240309,-0.915476 0.290883,0.899834 -2.28484,1.68466 0.07801,2.270582 -0.91797,2.020277 0.908762,8.022487 2.962257,4.782947 -2.519326,-0.17307 -2.718174,-5.925449 0.234552,-5.231597 l 0.05134,-0.352355 z m 3.035298,7.035803 c 1.752082,-1.18821 4.287506,0.68293 3.308008,-2.62214 2.249408,-3.572197 -4.726419,-6.295893 -4.492129,-3.162494 1.784481,-0.917347 4.991461,1.435084 1.720693,1.356274 -2.745605,0.0887 -4.193299,4.28794 -0.536572,4.42836 z m 0.2667,-1.0922 c -4.147998,-1.39593 4.626896,-3.55649 1.023057,-0.29469 -0.311813,0.21295 -0.65907,0.24793 -1.023057,0.29469 z m 6.349998,-8.064503 c -2.085847,-3.267723 -1.865449,3.153978 0,0 z m -0.1905,2.1209 c -2.337689,-0.07938 -0.816977,3.461413 -1.2192,5.096313 -0.599615,3.00003 2.215932,1.36375 1.2192,-0.99568 0,-1.36688 0,-2.733755 0,-4.100633 z m 1.917692,5.638803 c 1.313679,2.72701 2.488089,0.28153 1.2192,-1.19342 0,-2.358096 0,-4.716189 0,-7.074283 -2.337689,-0.07938 -0.816977,3.461415 -1.2192,5.096303 0,1.05714 0,2.11427 0,3.1714 z m 14.046198,1.2192 c -1.105936,-2.15014 -3.582498,-3.96692 -0.68634,-5.39688 1.547204,-3.916158 -4.370955,-5.430689 -6.4005,-3.417869 0.228553,2.921864 0.0406,5.878799 0.10184,8.814749 2.502726,0.41737 0.0696,-6.524394 3.645306,-3.15551 0.734187,0.9797 1.168428,2.4853 2.079125,3.15551 0.420189,0 0.840379,0 1.260569,0 z m -3.7592,-8.293103 c 5.50188,0.998584 -3.507525,6.442163 -2.038199,0.89433 -0.08979,-1.313111 1.271593,-0.788113 2.038199,-0.89433 z m 10.388599,4.292603 c -0.10583,-5.931414 -9.217569,-1.334175 -5.591695,2.68848 0.453266,3.41312 7.323155,-0.038 4.110515,-0.13225 -2.243079,2.091 -4.686526,-3.08116 -0.83121,-1.68169 0.7651,-0.0489 2.68894,0.63809 2.31239,-0.87454 z m -4.787899,-0.1397 c -0.28048,-3.579263 5.404799,-0.18696 1.958509,0.12344 -0.640239,-0.19122 -1.304209,-0.10379 -1.958509,-0.12344 z m 7.581909,-5.346703 c -2.38321,-0.117415 -0.85888,3.455659 -1.2573,5.096303 0,1.46354 0,2.92707 0,4.3906 2.3832,0.11741 0.85888,-3.45566 1.2573,-5.096306 0,-1.463532 0,-2.927065 0,-4.390597 z m 3.08611,9.486903 c -0.55988,-1.92447 0.26046,-8.207427 2.78813,-4.752022 0.60474,1.240802 -0.65388,6.230742 1.51516,4.077312 -1.06525,-1.97272 0.81908,-7.578926 2.75559,-3.938368 -0.1198,1.369128 0.25869,6.958418 1.42423,3.274408 0.86541,-3.741338 -1.73168,-7.139513 -5.13086,-4.832772 -1.28179,-1.732092 -3.32852,0.405616 -4.5129,-0.428895 0.45326,1.576684 -1.28182,6.853357 1.16065,6.600337 z m 12.0142,0.1778 c 1.75208,-1.18821 4.28751,0.68293 3.30801,-2.62214 2.24941,-3.572198 -4.72642,-6.295893 -4.49213,-3.162494 1.78448,-0.917346 4.99146,1.435084 1.72069,1.356274 -2.7456,0.0887 -4.1933,4.28794 -0.53657,4.42836 z m 0.2667,-1.0922 c -4.148,-1.39593 4.6269,-3.55649 1.02306,-0.2947 -0.31182,0.21296 -0.65907,0.24794 -1.02306,0.2947 z m 7.63269,3.7719 c 3.44969,0.14144 3.26161,-4.08336 3.1115,-6.49838 -0.23036,-1.025398 0.72618,-4.187839 -1.09142,-2.969157 -0.71806,0.906111 -4.11729,-1.961443 -4.76572,1.315041 -1.75029,3.150476 1.84481,6.917256 4.59067,4.505366 0.17105,2.92818 -2.90385,2.91998 -4.56764,1.86345 0.005,1.13761 1.6833,2.06242 2.72261,1.78368 z m 0.0762,-4.0386 c -5.25967,-0.66439 1.45423,-8.013956 1.8669,-2.3368 0.0758,1.06757 -0.66224,2.41412 -1.8669,2.3368 z m 6.36271,-7.797803 c -2.08585,-3.267723 -1.86545,3.153978 0,0 z m -0.1905,2.1209 c -2.33769,-0.07938 -0.81698,3.461413 -1.2192,5.096313 -0.59962,3.00003 2.21594,1.36375 1.2192,-0.99568 0,-1.36688 0,-2.733755 0,-4.100633 z m 3.13688,6.858003 c -0.60651,-2.06075 0.32398,-8.204121 3.05552,-4.823255 0.78151,1.223235 -0.62972,6.310075 1.58026,4.145605 0.66023,-3.45572 -0.91629,-7.901353 -4.83064,-5.741972 -2.06803,-0.928151 -0.53594,4.130702 -1.03932,5.674572 -0.24486,1.11009 0.72025,0.64831 1.23418,0.74505 z m 12.0142,-4.0005 c -0.10583,-5.931414 -9.21757,-1.334177 -5.5917,2.68848 0.45327,3.41312 7.32315,-0.038 4.11052,-0.13225 -2.24308,2.091 -4.68652,-3.08116 -0.8312,-1.68169 0.76509,-0.0489 2.68893,0.63809 2.31238,-0.87454 z m -4.7879,-0.1397 c -0.28048,-3.579262 5.4048,-0.18696 1.95851,0.12344 -0.64024,-0.19122 -1.30421,-0.10379 -1.95851,-0.12344 z m 12.17931,-5.346703 c -2.67942,-0.766208 0.27922,5.044983 -2.84296,2.752742 -4.32715,-1.627791 -4.76351,6.712051 -0.35409,6.813961 2.43974,0.18698 3.78538,-0.29732 3.19705,-3.26401 0,-2.100899 0,-4.201796 0,-6.302693 z m -1.1684,6.057903 c 0.0502,4.9373 -6.88725,0.0273 -2.76975,-2.224393 1.40095,-0.811147 2.98885,0.809798 2.76975,2.224393 z"
       id="text2"
       aria-label="Retail ReImagined" />
  </g>
  <g
     inkscape:groupmode="layer"
     id="layer2"
     inkscape:label="图层 2" />
</svg>
